<svg width="315" height="164" viewBox="0 0 315 164" fill="none" xmlns="http://www.w3.org/2000/svg">
<path d="M17.4375 81.6406H49.7812V89H8.39062V20.75H17.4375V81.6406ZM79.7344 89.9375C72.8594 89.9375 67.2656 87.6875 62.9531 83.1875C58.6406 78.6562 56.4844 72.6094 56.4844 65.0469V63.4531C56.4844 58.4219 57.4375 53.9375 59.3438 50C61.2812 46.0312 63.9688 42.9375 67.4062 40.7188C70.875 38.4688 74.625 37.3438 78.6562 37.3438C85.25 37.3438 90.375 39.5156 94.0312 43.8594C97.6875 48.2031 99.5156 54.4219 99.5156 62.5156V66.125H65.1562C65.2812 71.125 66.7344 75.1719 69.5156 78.2656C72.3281 81.3281 75.8906 82.8594 80.2031 82.8594C83.2656 82.8594 85.8594 82.2344 87.9844 80.9844C90.1094 79.7344 91.9688 78.0781 93.5625 76.0156L98.8594 80.1406C94.6094 86.6719 88.2344 89.9375 79.7344 89.9375ZM78.6562 44.4688C75.1562 44.4688 72.2188 45.75 69.8438 48.3125C67.4688 50.8438 66 54.4062 65.4375 59H90.8438V58.3438C90.5938 53.9375 89.4062 50.5312 87.2812 48.125C85.1562 45.6875 82.2812 44.4688 78.6562 44.4688ZM107.531 63.2188C107.531 55.3125 109.359 49.0312 113.016 44.375C116.672 39.6875 121.516 37.3438 127.547 37.3438C133.734 37.3438 138.562 39.5312 142.031 43.9062L142.453 38.2812H150.375V87.7812C150.375 94.3438 148.422 99.5156 144.516 103.297C140.641 107.078 135.422 108.969 128.859 108.969C125.203 108.969 121.625 108.188 118.125 106.625C114.625 105.062 111.953 102.922 110.109 100.203L114.609 95C118.328 99.5938 122.875 101.891 128.25 101.891C132.469 101.891 135.75 100.703 138.094 98.3281C140.469 95.9531 141.656 92.6094 141.656 88.2969V83.9375C138.188 87.9375 133.453 89.9375 127.453 89.9375C121.516 89.9375 116.703 87.5469 113.016 82.7656C109.359 77.9844 107.531 71.4688 107.531 63.2188ZM116.25 64.2031C116.25 69.9219 117.422 74.4219 119.766 77.7031C122.109 80.9531 125.391 82.5781 129.609 82.5781C135.078 82.5781 139.094 80.0938 141.656 75.125V51.9688C139 47.125 135.016 44.7031 129.703 44.7031C125.484 44.7031 122.188 46.3438 119.812 49.625C117.438 52.9062 116.25 57.7656 116.25 64.2031ZM184.547 89.9375C177.672 89.9375 172.078 87.6875 167.766 83.1875C163.453 78.6562 161.297 72.6094 161.297 65.0469V63.4531C161.297 58.4219 162.25 53.9375 164.156 50C166.094 46.0312 168.781 42.9375 172.219 40.7188C175.688 38.4688 179.438 37.3438 183.469 37.3438C190.062 37.3438 195.188 39.5156 198.844 43.8594C202.5 48.2031 204.328 54.4219 204.328 62.5156V66.125H169.969C170.094 71.125 171.547 75.1719 174.328 78.2656C177.141 81.3281 180.703 82.8594 185.016 82.8594C188.078 82.8594 190.672 82.2344 192.797 80.9844C194.922 79.7344 196.781 78.0781 198.375 76.0156L203.672 80.1406C199.422 86.6719 193.047 89.9375 184.547 89.9375ZM183.469 44.4688C179.969 44.4688 177.031 45.75 174.656 48.3125C172.281 50.8438 170.812 54.4062 170.25 59H195.656V58.3438C195.406 53.9375 194.219 50.5312 192.094 48.125C189.969 45.6875 187.094 44.4688 183.469 44.4688ZM222.609 38.2812L222.891 44.6562C226.766 39.7812 231.828 37.3438 238.078 37.3438C248.797 37.3438 254.203 43.3906 254.297 55.4844V89H245.625V55.4375C245.594 51.7812 244.75 49.0781 243.094 47.3281C241.469 45.5781 238.922 44.7031 235.453 44.7031C232.641 44.7031 230.172 45.4531 228.047 46.9531C225.922 48.4531 224.266 50.4219 223.078 52.8594V89H214.406V38.2812H222.609ZM265.266 63.2188C265.266 55.4375 267.109 49.1875 270.797 44.4688C274.484 39.7188 279.312 37.3438 285.281 37.3438C291.219 37.3438 295.922 39.375 299.391 43.4375V17H308.062V89H300.094L299.672 83.5625C296.203 87.8125 291.375 89.9375 285.188 89.9375C279.312 89.9375 274.516 87.5312 270.797 82.7188C267.109 77.9062 265.266 71.625 265.266 63.875V63.2188ZM273.938 64.2031C273.938 69.9531 275.125 74.4531 277.5 77.7031C279.875 80.9531 283.156 82.5781 287.344 82.5781C292.844 82.5781 296.859 80.1094 299.391 75.1719V51.875C296.797 47.0938 292.812 44.7031 287.438 44.7031C283.188 44.7031 279.875 46.3438 277.5 49.625C275.125 52.9062 273.938 57.7656 273.938 64.2031Z" fill="black"/>
<path d="M213.206 144C212.378 144 211.658 143.694 211.046 143.082C210.47 142.47 210.182 141.75 210.182 140.922V105.988C210.182 105.628 210.326 105.304 210.614 105.016C210.902 104.729 211.226 104.585 211.586 104.585C211.946 104.585 212.252 104.729 212.504 105.016C212.792 105.268 212.936 105.592 212.936 105.988V141.138C212.936 141.462 213.098 141.624 213.422 141.624H231.834C232.158 141.624 232.427 141.75 232.643 142.002C232.895 142.218 233.021 142.488 233.021 142.812C233.021 143.136 232.895 143.424 232.643 143.676C232.427 143.892 232.158 144 231.834 144H213.206ZM245.56 143.568C245.272 143.856 244.93 144 244.534 144C244.138 144 243.796 143.856 243.508 143.568C243.22 143.28 243.076 142.938 243.076 142.542V106.042C243.076 105.646 243.22 105.304 243.508 105.016C243.796 104.729 244.138 104.585 244.534 104.585C244.93 104.585 245.272 104.729 245.56 105.016C245.848 105.304 245.992 105.646 245.992 106.042V142.542C245.992 142.938 245.848 143.28 245.56 143.568ZM266.823 124.454C259.624 122.115 256.024 118.317 256.024 113.062C256.024 110.218 256.96 108.004 258.832 106.42C260.703 104.837 263.367 104.045 266.823 104.045C270.206 104.045 273.338 104.639 276.218 105.826C277.046 106.186 277.46 106.816 277.46 107.716C277.46 108.004 277.334 108.238 277.082 108.418C276.83 108.562 276.56 108.562 276.272 108.418C273.32 107.05 270.242 106.366 267.039 106.366C264.663 106.366 262.683 106.888 261.099 107.932C259.516 108.976 258.724 110.686 258.724 113.062C258.724 117.129 261.495 120.063 267.039 121.863C271.178 123.194 274.13 124.814 275.894 126.722C277.658 128.63 278.539 131.059 278.539 134.011C278.539 137.431 277.532 140.04 275.516 141.84C273.5 143.64 270.584 144.54 266.769 144.54C263.421 144.54 260.398 143.838 257.698 142.434C256.906 142.038 256.51 141.354 256.51 140.382C256.51 140.094 256.636 139.878 256.888 139.734C257.176 139.591 257.446 139.609 257.698 139.788C260.29 141.408 263.241 142.218 266.553 142.218C269.576 142.218 271.88 141.516 273.464 140.112C275.048 138.709 275.84 136.675 275.84 134.011C275.84 131.707 275.12 129.8 273.68 128.288C272.276 126.776 269.99 125.498 266.823 124.454ZM285.474 106.96C285.15 106.96 284.862 106.852 284.61 106.636C284.394 106.384 284.286 106.096 284.286 105.772C284.286 105.448 284.394 105.178 284.61 104.962C284.862 104.711 285.15 104.585 285.474 104.585H310.419C310.743 104.585 311.013 104.711 311.229 104.962C311.481 105.178 311.607 105.448 311.607 105.772C311.607 106.096 311.481 106.384 311.229 106.636C311.013 106.852 310.743 106.96 310.419 106.96H299.783C299.459 106.96 299.297 107.122 299.297 107.446V142.65C299.297 143.046 299.153 143.37 298.865 143.622C298.613 143.874 298.307 144 297.947 144C297.587 144 297.263 143.874 296.975 143.622C296.723 143.37 296.597 143.046 296.597 142.65V107.446C296.597 107.122 296.435 106.96 296.111 106.96H285.474Z" fill="black"/>
</svg>
